<?xml version="1.0" encoding="utf-8"?>
<!-- Generator: Adobe Illustrator 25.1.0, SVG Export Plug-In . SVG Version: 6.00 Build 0)  -->
<svg version="1.1" id="Layer_1" xmlns="http://www.w3.org/2000/svg" xmlns:xlink="http://www.w3.org/1999/xlink" x="0px" y="0px"
	 viewBox="0 0 6752 1602" style="enable-background:new 0 0 6752 1602;" xml:space="preserve">
<style type="text/css">
	.st0{fill:none;stroke:#000000;stroke-width:10;stroke-linecap:round;stroke-linejoin:round;stroke-miterlimit:10;}
	.st1{fill:none;stroke:#FFF000;stroke-width:10;stroke-linecap:round;stroke-linejoin:round;stroke-miterlimit:10;}
	.st2{clip-path:url(#SVGID_2_);fill:#4C8FF8;}
	.st3{font-family:'AppleSDGothicNeoH00';}
	.st4{font-size:1000.8014px;}
	.st5{opacity:0.1;}
</style>
<image style="overflow:visible;" width="899" height="1200" xlink:href="../../11/profile3.png"  transform="matrix(0.4472 0 0 0.4472 458.4445 612.1786)">
</image>
<path id="_Pencil" d="M920.8,2093.2c-120.9,0-218.4,73.1-281.4,73.1c-66,0-154.4-69.1-259.1-69.1c-199.1,0-401.3,164.6-401.3,475.5
	c0,193,75.2,397.2,167.6,529.3c78.2,111.8,148.3,203.2,247.9,203.2c98.5,0,142.2-66,265.2-66c123.9,0,152.4,64,261.1,64
	s180.8-99.6,248.9-197.1c75.2-111.8,107.7-221.5,108.7-226.6c-6.1-2-213.3-86.4-213.3-323.1c0-205.2,162.6-297.7,171.7-304.8
	C1130.1,2097.2,966.5,2093.2,920.8,2093.2z M864.9,1962.1c48.8-58.9,83.3-141.2,83.3-223.5c0.1-10.6-0.9-21.1-3-31.5
	c-79.2,3-176.8,53.8-234.7,121.9c-44.7,51.8-87.4,133.1-87.4,216.4c0,9.6,1.1,19.1,3,28.4c7,1.3,14.2,2,21.3,2
	C719.7,2075.9,811.1,2027.1,864.9,1962.1z M1519.5,1820.9v1466h262.1v-484.6h296.7c296.7,0,504.9-198.1,504.9-490.7
	s-202.2-490.7-493.8-490.7L1519.5,1820.9L1519.5,1820.9z M1781.6,2035.3h238.8c188,0,296.7,100.6,296.7,276.3
	c0,177.8-109.7,279.4-297.7,279.4h-237.7v-555.7H1781.6z M3153.7,2383.7c145.3,0,242.8,106.7,247.9,259.1h-502.9
	C2908.8,2492.4,3011.5,2383.7,3153.7,2383.7z M3402.6,2964.9c-27.4,89.4-116.8,148.3-234.7,148.3c-165.6,0-271.3-115.8-271.3-288.5
	v-15.2h752.8v-82.3c0-327.1-191-539.5-496.8-539.5c-310.9,0-508,224.5-508,564.9c0,343.4,195.1,555.7,518.1,555.7
	c255,0,444-140.2,476.5-343.4H3402.6L3402.6,2964.9z M3793.3,3286.9h253v-623.8c0-154.4,92.4-259.1,237.7-259.1
	c144.3,0,215.4,85.3,215.4,237.7v645.1h253V2591c0-248.9-135.1-401.3-372.9-401.3c-165.6,0-280.4,77.2-338.3,205.2h-5.1V2210h-242.8
	V3286.9L3793.3,3286.9z M5884.7,2594c-17.2-226.5-193-406.3-477.5-406.3c-312.9,0-516.1,216.4-516.1,560.8
	c0,349.5,203.2,559.8,518.1,559.8c270.2,0,456.2-158.5,476.5-399.3h-238.8c-23.4,121.9-106.7,195.1-234.7,195.1
	c-160.5,0-264.1-130-264.1-355.6c0-221.5,102.6-355.6,262.1-355.6c135.1,0,215.4,86.4,235.7,201.2L5884.7,2594L5884.7,2594z
	 M6023.5,3286.9h253V2210h-253V3286.9z M6148.4,2047.5c78.2,0,139.2-62,139.2-137.2c0-76.2-61-137.2-139.2-137.2
	c-76.2,0-138.2,61-138.2,137.2C6010.3,1985.5,6072.2,2047.5,6148.4,2047.5z M6477.2,3286.9h253v-1466h-253V3286.9z"/>
<g>
	<path class="st0" d="M894-425.5l50-26c7,0,25-3,25-3c16,17,26,10,26,10c4-9-8-20-8-20c30-12,26-30,26-30c-4-6-26,16-26,16
		c26-23,18-36,18-36c-6-8-33,25.4-33,25.4c31-38.6,9-38.6,9-38.6c-10,1.9-28,32.1-28,32.1c19-25,5-32,5-32c-14-3-37,44-37,44l-90,33
		c0,0-28,60,98,48"/>
	<path class="st0" d="M856-239.5c0,0,172-96,192-130c0,0,126.7,62.7,202-20c0,0,110.7-121.3,0-244c0,0-120-118.7-229.3-18.7
		c0,0-53.3,49.3-49.5,131.6"/>
	<path class="st0" d="M1024.3-346.1L926-239.5c0,0,9,33-8,37c0,0-10-5-9-25l-15,25"/>
	<path class="st0" d="M1105.1-532c0,0-45.5-12.3-54.9-13.9"/>
	<polyline class="st0" points="1091.6,-502.3 1048,-518.3 1082.1,-493.7 1046.4,-507.9 1072.5,-485.1 1040,-502.9 	"/>
	<line class="st0" x1="1180.1" y1="-485.1" x2="1214.1" y2="-451.7"/>
	<polyline class="st0" points="1167.1,-458.1 1188.5,-434.9 1160.7,-449.9 1179,-428.1 1154.1,-442 1170.7,-423 	"/>
	<line class="st0" x1="1132.1" y1="-488.9" x2="1114.7" y2="-457.8"/>
	<path class="st0" d="M1111.1-422.9c0,0-35.4-4.3-47.8-18.8l-7.4,33"/>
	<g>
		<polyline class="st1" points="1239.7,-549.5 1222.3,-522.8 1249,-510.9 		"/>
		<line class="st1" x1="1261.7" y1="-560.2" x2="1261.7" y2="-520.8"/>
		<polyline class="st1" points="1277,-528 1285,-549.5 1274.3,-564.2 		"/>
	</g>
</g>
<g>
	<defs>
		<rect id="SVGID_1_" x="1011.4" y="-2382.1" width="5728.8" height="1732.7"/>
	</defs>
	<clipPath id="SVGID_2_">
		<use xlink:href="#SVGID_1_"  style="overflow:visible;"/>
	</clipPath>
	<path class="st2" d="M1635.4-1828.3c-10.4,24.3-21.4,48.3-32.5,72.3c-11.3,23.8-23,47.5-34.7,71.2l-43,65.9l-43.3,65.6
		c-58.1,87.3-117.6,173.7-177.9,259.4c-60.3,85.7-121.4,170.8-183,255.6l-92.6,126.9c-35.7,38.7-71.3,77.6-108.5,115.2
		c24.7-46.8,51-92.4,77.2-138.1l92.5-126.8c61.5-84.7,122.5-169.6,182.7-255.1c60.2-85.5,119.4-171.6,177.3-258.6
		c28.8-43.6,57.7-87.1,85.6-131.2c16.4-20.5,32.9-41,49.6-61.3C1601.5-1787.7,1618.1-1808.2,1635.4-1828.3"/>
	<path class="st2" d="M2036.2-1663.2c-45.9,56.2-97.5,108.1-152.5,156.4c-58.5,43.5-119.6,83.6-182.7,120
		c-31.6,18.1-63.7,35.4-96.1,51.9l-96.1,49.6c-64.4,33.1-131.1,64.8-202.5,85.5c-16.1,4.7-33.1,11.2-50.9,16.8
		c-17.9,5.5-36.3,10.9-57.4,12.3c-10.5,0.6-21.8,0.3-33.6-3.2c-9.8-3.1-19.8-6.9-29.7-13.4c-4.9-3.4-9.9-7.3-14.3-12.7
		c-4.4-5.2-8.2-12.1-10-19.6c-1.9-7.5-1.8-15.4-0.2-22.2c1.6-6.8,4.2-12.8,7.3-18.2c6.3-10.5,14.2-18.5,22.6-25.3
		c8.4-6.8,17.5-12.2,27.1-16.6c9.7-4.3,19.8-7.7,30.7-9.4c10.9-1.6,20.9-1.7,31.2-1.4c40.5,2.7,77,16.9,110.5,34.6
		c16.8,9,32.8,19.3,48.1,30.8c3.8,2.9,7.6,6,11.3,9l10.5,9.1c7.1,6,13.8,12.3,20.6,18.6c6.8,6.3,13.3,12.8,19.9,19.2
		c6.4,6.6,12.9,13.1,19.2,19.9l18.7,20.3c6.3,6.7,12.6,13.4,17.9,20.9c42.8,59.9,79.2,122.9,112.2,187.5
		c-46-56-91.6-112.1-141.9-162.5c-23.1-26.9-46.7-53.2-72.6-77.1c-6.5-5.9-12.9-12-19.6-17.6l-10-8.6c-3.3-2.7-6.5-5.3-9.9-7.9
		c-13.5-10.2-27.9-19.4-42.9-27.5c-29.9-16-62.6-28-94.3-30c-7.7-0.3-15.8-0.1-22.8,0.9c-6.9,1.1-14.1,3.4-20.8,6.5
		c-13.4,6-26.2,16.1-32.3,26.3c-1.4,2.5-2.4,4.8-2.8,6.8c-0.4,1.9-0.3,3.3,0,4.6c0.4,2.3,2.9,5.8,8.2,9.3c5.2,3.4,12.1,6.3,19.5,8.6
		c5.5,1.6,12.5,2.1,19.9,1.6c15-0.9,31.6-5.4,48.1-10.6c16.6-5.2,33.4-11.6,51.9-17.1c67.4-19.5,131.8-50,195.5-82.7l96.2-49.7
		c31.9-16.2,63.3-33.1,94.3-50.9c31-17.7,61.3-36.6,91.1-56.1c15-9.7,29.6-19.9,44.3-30c7.3-5.2,14.5-10.3,21.7-15.7
		c7.2-5.3,14-11.1,21.5-15.9C1920.9-1576.2,1979-1618.5,2036.2-1663.2"/>
	<path class="st2" d="M1807-1063.4c21.5-15.4,45.3-27.8,69.3-39.1c24.1-11.1,48.5-21.2,71.9-32.6c46.3-22.3,90.6-51.9,107.7-94.4
		c4.4-9.9,6.3-19.6,5.2-24.4c-0.5-2.3-1.8-3.6-3.8-5.7c-0.8-0.4-1.6-0.8-2.3-1.3c-0.7-0.4-1.6-1.1-2-1c-0.5-0.1-0.9-0.2-1.4-0.5
		c-0.7-0.1-1.8-0.1-2.6-0.2c-7.7-0.7-19.8,2.1-30.9,5.8c-11.4,3.8-22.9,8.7-34.4,14.1c-11.4,5.4-22.8,11.3-34,17.5l-16.8,9.6
		l-8.3,4.9c-2.7,1.6-4.8,2.9-7.4,4.7c-20.2,14-40.4,30.8-59.4,48c-19.1,17.2-37.3,35.4-54,54.4c-16.4,19-31.9,39.4-41.4,60.2
		c-4.7,10.3-7.5,20.8-7,28.8c0.9,7.7,3.8,12.8,11.1,18c3.6,2.9,13.7,3.9,26.9,3.3c13-0.3,25.9-0.9,38.8-1.6
		c51.6-3.1,102.9-10.2,152.9-22.2c50.2-11.9,98.6-29.1,146.2-50c48.6-21.2,97.2-41,143.9-63.7c46.8-22.5,91.7-47.9,131.9-78.9
		c20-15.6,38.8-32.7,55.9-50.9c2.9-3.1,5.5-7.4,5.9-9.3c0.3-0.9-0.1-0.7,0.4,1.1c0.4,1.9,2,3.5,2.9,3.9c0.7,0.3-0.5-0.3-3.1-0.7
		c-2.8-0.4-5.6-1-8.4-1.2c-5.7-0.8-11.5-0.9-17.3-0.9c-23.2,0.3-46.9,5.9-67,16.7c-2.6,1.3-4.9,2.8-7.4,4.3l-7.8,5.1
		c-5.3,3.3-10.2,7.2-15.3,10.7c-9.9,7.6-19.7,15.4-28.7,24c-36.6,33.9-65.7,76-84,122.1c-2.2,5.8-4.4,11.7-6.3,17.4
		c-1.8,5.7-3.2,11.2-4.1,16.4c-1.8,10.6-0.9,19.5,2.7,25.5c3.6,6.2,9.9,10.7,19.5,13.1c9.6,2.2,20.9,2.2,32.5,1.8
		c5.9-0.1,11.7-0.7,17.9-1.5c6.3-1,12.6-1.7,18.9-2.8c12.6-2.2,25.2-4.7,37.7-7.8c25.1-6,49.8-13.9,74.5-22.4
		c24.6-8.6,49.1-18.4,73.4-28.5l73.1-30.6l-68.2,40.4c-23,13.2-46.2,25.9-70.1,37.8c-23.9,12-48.5,22.6-73.9,31.9
		c-12.7,4.6-25.6,8.8-38.7,12.6c-6.5,1.9-13.2,3.5-19.8,5.3c-6.7,1.7-13.9,3.2-21.2,4.2c-14.5,2.1-30,1.6-46-2.7
		c-8-2.2-16.3-5.6-23.9-10.8c-7.6-5.2-14.6-12.4-19.3-20.6c-4.9-8.3-7.4-17.6-8.4-26.4c-0.8-8.8-0.3-17.1,1-24.9
		c1.3-7.7,3.2-15,5.5-21.9c2.3-6.8,4.7-13.2,7.1-19.8c20.5-51.8,52.9-98.6,93.6-136.3c10-9.6,20.9-18.2,31.9-26.7
		c5.7-4,11.2-8.2,17-11.9l8.7-5.7c3.1-1.9,6.4-3.9,9.7-5.6c26.4-14.1,55.6-20.8,85-21.3c7.4,0,14.8,0.2,22.2,1.2
		c3.7,0.3,7.4,1.1,11.1,1.6c3.9,0.8,9.2,1.7,15.6,5.4c6.6,3.8,12.6,10.8,14.8,19.1c2.2,8.2,1,15.2-0.6,20.6
		c-3.5,10.7-8.6,17.6-14.5,24.2c-18.9,20.2-39.2,38.6-60.8,55.4c-43.3,33.4-90.7,60.1-138.9,83.2c-48.2,23.3-97.2,43.3-145.3,64.3
		c-48.9,21.5-100.1,39.8-152.6,52.2c-52.5,12.6-106.1,20-159.6,23.2c-13.4,0.8-26.8,1.3-40.2,1.7c-6.6,0.2-14,0.4-22.4-0.5
		c-8.3-0.9-18.3-3.3-27.2-9.4c-3.5-2.8-7.2-5.4-10.5-8.7c-3.1-3.6-6.6-6.9-8.9-11.4c-1.2-2.1-2.5-4.3-3.6-6.4l-2.5-6.9
		c-0.9-2.3-1.4-4.7-1.7-7l-1-7c-1-18.5,4.4-33.9,10.4-47.5c12.5-27.2,29.7-49,47.5-69.8c18-20.6,37.2-39.7,57.3-57.8
		c20.2-18.1,40.5-35.2,63.6-51.3c2.8-1.9,6.3-4.2,9.2-5.9l8.7-5.1l17.6-10c11.8-6.5,23.9-12.8,36.2-18.7
		c12.4-5.9,25.2-11.3,38.8-15.8c6.8-2.3,13.9-4.3,21.4-5.8c7.6-1.4,15.5-2.7,25-1.9c2.4,0.3,4.7,0.4,7.2,0.9c2.7,0.7,5.4,1.6,8,2.5
		c2.8,0.9,4.7,2.1,6.8,3.3l6.2,3.8c8,6.4,15.5,15.6,18.3,26.2c2.6,10.2,2.8,20.5,0.8,28.8c-0.7,4.5-2.2,8.2-3.4,12.2
		c-1.6,3.7-3.1,7.5-4.9,10.9c-7.4,13.7-16.6,25.2-26.7,35.7c-5.1,5.2-10.6,10.2-16.4,14.7c-5.8,4.1-11.3,8.7-17.4,12.2
		c-23.7,15.1-49,26.1-74.4,34.6c-25.4,8.6-50.9,15.6-75.9,23.5C1855.3-1084.3,1830.5-1075.6,1807-1063.4"/>
	<path class="st2" d="M2776.3-1381.2c-3.9,23.6-8.4,47.2-13.3,70.8c-5.8,23.2-11.7,46.6-18.1,69.8c-1.8,5.7-4.6,11-7.2,16.4
		c-2.6,5.4-4.9,10.9-7.3,16.4c-4.9,10.9-9.4,22-14.7,32.7c-10.4,21.5-20.3,43.2-31.2,64.4c-42.9,85.2-90.4,167.7-138.8,249.2
		c-48.5,81.5-97.9,162.1-145.5,243.6c-23.8,40.7-47.1,81.7-69.8,123l-41.3,58.1c-13.6,19.5-27.3,39-41.5,58.4
		c7.3-22.8,15.1-45.4,23.1-68c8.2-22.5,17.2-44.6,25.7-67c22.9-41.7,46.4-83,70.3-123.9c47.9-82,97.4-162.7,145.6-243.9
		c48.3-81.2,95.3-162.9,137.5-246.8c10.7-20.9,20.4-42.2,30.7-63.3c10-21.2,18.8-42.9,28.3-64.3l34.3-62.1
		c5.6-10.4,10.9-21.1,16.4-31.6C2765-1360,2770.4-1370.6,2776.3-1381.2"/>
	<path class="st2" d="M2754.9-1168.5c22.9-29.9,48.2-57.6,75.3-84.3c30.8-21.5,62.2-42.6,98.7-58.3c4.6-1.9,9.2-3.9,14.1-5.4
		l7.3-2.4l7.7-2c10.3-2.5,21.7-4.3,34.9-2.2c3.2,0.3,6.6,1.3,10.1,2.6c3.4,0.9,6.8,2.9,10.1,4.9c3.4,1.8,6.2,4.8,9,7.5
		c2.8,2.7,4.7,6.1,6.8,9.2c7.3,13.2,8,25.9,7.6,37c-1.2,22.4-7.3,41.6-14.6,59.9c-7.4,18.3-16.4,35.5-26.5,51.9
		c-20.1,32.9-44.2,63.1-72.3,89.8c-28.1,26.4-60.5,50.1-99.2,63.6c-19.3,6.6-40.3,10.4-61.7,9.2c-21.3-1.4-42.6-7.6-60.8-18.4
		c-16.9-13.1-30.1-28.8-40.4-45.4c-10.1-16.8-17.6-34.4-23.4-52.2c12.6,14,25.3,27.4,39.1,38.6c14,11,28.6,20.1,43.8,25.2
		c13.7,7.5,28.4,12.6,43.9,13.4c15.4,0.8,31.3-1.8,46.8-7.1c31-10.7,59.8-31.2,85.1-55c25.3-24,47.5-51.9,65.8-81.8
		c9.1-14.9,17.2-30.5,23.6-46.3c6.4-15.7,11.2-32.2,11.8-46.7c0.4-7.1-0.8-13.6-2.6-16.6c-1.8-2.8-3.3-3.9-8.5-4.9
		c-2.3-0.6-5.7-0.3-8.9-0.2c-3.6,0.6-7,0.8-10.8,1.9l-5.7,1.4l-5.8,2c-3.9,1.1-7.7,2.8-11.6,4.5c-31.2,13.5-61.8,33.1-90.8,54.3
		C2820.4-1204.5,2788.2-1186,2754.9-1168.5"/>
	<path class="st2" d="M4353.6-1803.1c18.4-21.3,36.9-42.6,52.1-65.8c7.7-11.5,14.6-23.4,20.2-35.8c5.5-12.4,10.3-25.2,11.5-37.4
		c1.3-12.3-1.5-23.1-8.1-32.5c-6.5-9.3-16.4-16.8-27.1-21.5c-22-9.6-48.6-9.6-76.3-8.9c-54.9-1.5-110.1,2.8-164.4,11.7
		c-27.2,4.5-54.1,10.4-80.8,17.2c-26.5,7.2-53,14.9-78.7,24.7c-25.8,9.5-51.1,20.1-75.6,32.4c-24.6,12.1-48.3,25.6-71.1,40.8
		c-45.6,30.3-88.6,65.9-129.6,103c-81.7,74.6-153.8,160.1-208.4,255.9c-27.3,47.8-50,98.1-66.8,150.4c-3.8,13.2-8.1,26.2-11.6,39.4
		c-3.1,13.3-6.6,26.7-9.4,39.9c-5.2,26.3-7.9,52.6-1.8,75.3c5.9,22.6,21.6,40.6,42.9,51.6c10.6,5.7,22.7,9.4,35.2,12.1
		c12.5,2.7,25.5,4.2,38.7,4.6c13.2,0.4,26.5,0.2,39.9-1c13.2-1.1,26.9-3.3,40.5-5.3c13.6-1.8,27.1-4.9,40.7-7.2
		c13.5-2.7,26.9-6,40.3-9c106.9-27,209.7-71.4,302.7-130.7c48.1-27.2,93.5-59.3,136.4-94.6c21.3-17.8,41.5-36.8,59.1-58.2
		c17.8-21.2,33.1-44.8,44.2-70.7c-7.8,27-20.4,52.9-36,76.8c-15.7,23.9-34.4,45.7-54.1,66.3c-39.8,40.7-83.4,77.9-130.2,110.9
		c-96.5,61.4-202.5,107.3-313.5,135.3c-14,3.1-27.8,6.5-41.9,9.4c-14.1,2.5-28.1,5.7-42.3,7.5c-14.2,2-28.2,4.4-43,5.6
		c-14.6,1.3-29.4,1.6-44.3,1.1c-14.9-0.5-29.9-2.2-44.9-5.4c-14.9-3.2-30-7.8-44.2-15.3c-14.2-7.4-27.7-17.5-38.4-30.3
		c-10.9-12.7-18.5-28.1-22.8-44c-8.3-32.1-4.2-63.3,1.3-91.7c3-14.2,6.6-28.1,9.9-42.1c3.7-13.9,8.1-27.6,12.1-41.4
		c17.7-54.7,41.4-107.3,69.8-157.1c56.9-99.6,131.4-187.9,215.5-264.7c42.3-38.2,86-74.5,134-106.5c23.9-16,49.2-30.3,75-43
		c25.7-13,52.3-24.1,79.2-34c107.8-39.5,222.5-58.2,337.3-56.1c14.2,0.8,28.8,2,43.8,4.8c14.9,2.8,30.3,7.2,44.5,15.2
		c14.2,8.1,26.6,19.5,34.8,34.1c4.1,7.3,7.1,15.4,8.2,23.8c1.3,8.5,0.5,16.9-1.1,24.6c-3.5,15.6-10.4,28.7-17.6,41.2
		c-7.4,12.6-16.1,24.1-25.3,35.1C4395.6-1840.7,4374.5-1821.9,4353.6-1803.1"/>
	<path class="st2" d="M3856.7-1489.1c27.4-12.3,55.3-22.4,83.1-32.5c28.8-4.5,57.5-9.6,86.3-14.3c14.4-2.4,28.7-5,43.1-7.1l43.3-6.3
		l86.5-12.5l173.1-25.1l86.5-12.5c29.6,1.3,59.2,2.4,89,5.4c-27.8,11.4-55.9,20.8-83.9,30.4l-86.4,12.5l-172.7,25l-86.4,12.5
		l-43.2,6.3c-14.4,2.1-28.7,4.7-43,7.1c-28.7,4.9-57.4,9.5-86,14.7C3916.3-1486.1,3886.7-1486.5,3856.7-1489.1"/>
	<path class="st2" d="M4286.6-1541.4c-1.2,21.2-2.8,41.4-4.5,61.6c-6.9,18.4-13,37.2-19.6,56.1c-13,37.7-27.5,76.3-46.9,112.4
		c-18.7,35.6-38.5,69.9-55.9,104.8c-8.7,17.4-16.9,35-24,52.9c-12.3,15.8-23.5,32.4-35.5,49.8c-2.1-21.1-0.6-42.2,1.9-63.3
		c7.6-19,16.2-37.5,25.2-55.6c18.1-36.2,38-70.7,56.3-105.5c18.3-34,31.8-70,44.8-107.4l19.4-56.5
		C4259.3-1509.2,4271.9-1526.1,4286.6-1541.4"/>
	<path class="st2" d="M4436.6-1416.7c-18.9,23.4-37.2,46.1-53.6,69.8c-2.2,3-4.1,4.8-6.5,7c-2.3,2.1-4.1,4.6-5.8,7.1
		c-1.8,2.5-3.7,4.9-5,7.7c-1.3,2.7-3.2,5.2-4.2,8.1c-5,10.9-7.6,22.8-7,34.1c0.6,11.3,4.3,21.9,11,30.3c6.6,8.5,16.2,14.8,27.4,18.8
		c5.4,2.4,11.7,3.2,17.7,4.7c3.1,0.4,6.2,0.6,9.3,0.9c1.6,0.1,3.1,0.4,4.7,0.4l4.7-0.2c12.6,0.1,25.2-2.6,37.5-6.6
		c12.4-3.7,24.1-10.2,35.5-16.9c11.2-7.1,21.8-15.5,31.7-24.6c19.4-18.6,36.1-40.7,47.1-64.8c5.8-12,9.9-24.5,11.6-36.5
		c1.8-12,0.3-23.2-3.5-34.6c-2.8-24.2-17.4-49.7-42.8-65.6c30.4,2,60.4,22.9,77,53.6c2.3,3.8,2.9,8.2,3.8,12.5c0.6,4.3,1.7,8.6,2,13
		c0.9,8.8,0.7,17.7-0.5,26.1c-2.4,16.9-7.8,32.4-14.5,46.7c-13.3,29-32.5,54.3-55.1,76c-22.9,21.4-49.7,39.4-80.6,49.6
		c-15.4,5-31.6,8.5-48.3,8.4l-6.2,0.1c-2.1,0-4.2-0.3-6.2-0.5c-4.1-0.4-8.3-0.7-12.4-1.2c-8.2-1.8-16.5-3.1-24.6-6.5
		c-16.1-5.8-32-15.9-43.4-30.5c-11.5-14.5-17.7-32.8-18.6-50.6c-2-36.2,16-68.8,39-91.9C4382.5-1390.1,4408.6-1405.4,4436.6-1416.7"
		/>
	<path class="st2" d="M4960.8-1650.5c5.5,6.4,9,11.6,12.8,16.7c-1.6,3-2.5,6.3-3.7,9.4c-2.2,6.4-4.1,12.8-5.8,19.4
		c-1.7,6.5-3,13.1-4.2,19.8l-0.8,4.9c-0.1,0,0.2,0.5,0,0.5c-2.8,0.4-5.6,1.1-8.3,2.3c-1.3,0.6-2.7,1.3-3.5,2.6c-1,1.4-0.9,3.4,0.2,5
		c-0.8,1.7-2.5,3.4-5.1,3.9c-2.4,0.4-5.1-0.2-7.4-1.2c-4.6-1.9-8.4-4.8-11.7-7.9c-0.6-3.5-0.3-6.7,0.1-10.3l0.9-5.8
		c1.3-7.6,2.9-15.2,4.8-22.7c1.9-7.5,4.1-14.9,6.7-22.2c1.2-3.7,2.8-7.2,3.9-11C4946.1-1648.7,4952.5-1650.2,4960.8-1650.5"/>
	<path class="st2" d="M4816.6-1445.3c-40.7,46.9-66.8,103.9-76.1,162.2c-1.3,7.3-1.7,13.6-1.4,19.9c0.4,6,1.9,11.4,3.8,14
		c2,2.6,2.6,3.6,6.1,5c3.6,1.3,10,1.8,17.5,1.4c29.2-0.3,58.4-5,87.3-12.4c28.9-7.4,57.4-17.5,85.6-28.7
		c14.1-5.7,28.3-11.5,42.4-17.6c14.1-6.1,28.7-12,41.2-18.3c12.7-6.4,22.8-13.7,32.1-23.7c9.2-9.8,17.2-21.5,24.6-34.2
		c14.9-25.3,27.6-54.9,49-81.8l72.8-91.5l-41.8,109.3c-13.4,35-30.8,67.3-48.8,98.6c-18,31.3-36.7,61.7-53.6,92.5l-27.3-22.7
		c57.6-46.7,116.1-93.8,180.8-133.3c32.3-19.7,66.2-37.4,101.8-51.5l13.4-5.2c4.5-1.7,9.1-3.1,13.6-4.6l13.7-4.5l13.9-3.8
		c4.7-1.2,9.3-2.6,14-3.7l14.2-3c9.3-2,19-4,29.6-4.8c10.5-0.7,21.8-0.7,33.8,2.6c5.9,1.7,12,4.2,17.6,7.8c2.8,1.8,5.5,3.9,8,6.2
		c2.2,2.2,4.2,4.2,6.3,6.6c4,4.7,7.6,10.3,10.3,16.8c2.6,6.5,3.8,13.8,3.6,20.7c-0.4,14-5.4,24.9-9.7,33.9
		c-4.4,9-8.9,16.9-10.9,22.9c-1,2.9-1.1,4.9-1,5.5c0.1,0.7,0.2,1,1.5,2.5c7,7.4,21.2,9.6,37.3,10.4c16.2,0.5,33.9-2.1,51.4-6.1
		c17.6-3.9,35.1-9.1,52.9-14.3c18.1-5.4,35.5-9.8,52.3-17.1c16.9-6.9,33.1-15.9,48.8-26c-13.6,12.6-28.2,24.6-44.2,34.7
		c-15.9,10.3-33.7,17.9-50.1,25.8c-16.8,8.1-33.9,15.9-51.9,22.7c-17.9,6.8-36.7,12.6-57.5,15.1c-5.1,0.8-10.7,0.8-16.1,0.8
		c-2.7,0-5.6-0.5-8.4-0.9c-2.8-0.4-5.6-0.8-8.5-1.8l-8.6-2.8c-2.8-1.4-5.7-2.8-8.5-4.2c-5.5-2.9-10.5-6.5-15.6-11.9
		c-5-5.2-9.6-13.4-10.6-22c-1.2-8.5,0.5-15.9,2.4-21.8c4-11.7,9.1-19.8,12.7-27.4c3.7-7.5,6.1-14.2,6-18.9c0-2.4-0.3-4.4-1.1-6.5
		c-0.9-2.1-2.3-4.4-4.3-6.8c-1-1.2-2.3-2.4-3.3-3.5c-0.9-0.8-1.9-1.6-3-2.3c-2.2-1.4-4.7-2.5-7.7-3.3c-5.9-1.7-13.4-2-21.3-1.4
		c-7.9,0.5-16.4,2.3-25.2,4.2l-13,2.7c-4.3,1.1-8.6,2.3-12.9,3.5l-12.9,3.5l-12.7,4.2c-4.2,1.4-8.5,2.7-12.7,4.3l-12.5,4.9
		c-33.3,13.2-65.4,29.9-96.3,48.7c-62,37.8-119.4,83.8-176.8,130.4l-71.8,58.4l44.6-81.1c17.5-31.9,36.4-62.4,54-93.1
		c17.6-30.7,34.1-61.6,46.3-93.5l31,17.8c-17.4,21.6-29.7,49.3-45.9,77.3c-8.2,14-17.6,28.1-29.5,40.8c-11.6,12.8-27,23.7-42,31.1
		c-15.1,7.6-29.2,13.2-43.5,19.4c-14.3,6.1-28.7,12.1-43.2,17.9c-29.1,11.6-59,22.2-90,30.2c-31,7.9-63.2,13.1-95.8,13.5
		c-7.9,0.1-17.1,0.5-28.5-2.5c-5.6-1.5-11.8-4.4-16.8-8.7c-5.1-4.2-9.1-9.7-11.6-15.2c-5.1-11.3-5-21.8-4.4-31.1
		c0.8-9.2,3-18.3,5.5-25.9C4730.1-1352.2,4767.8-1406.9,4816.6-1445.3"/>
	<path class="st2" d="M5996.7-1478.1c-28.6-10.2-59.4-12.7-88.5-6.7l-10.8,2.3c-3.6,0.9-7.1,2.1-10.6,3.2
		c-7.1,1.8-13.8,5.1-20.6,7.7c-13.2,6.3-26,13.4-37.3,22.6c-23,17.5-40.7,41.1-50.9,67c-5.4,13-7.8,26.1-4.6,35.5
		c2.9,9.7,11.6,17.7,22.3,22.3c5.4,2.3,11.2,3.8,17,4.4c2.9,0.2,5.8,0.3,8.6,0.1c2.7-0.2,5.5-0.6,8.6-1.3c11.9-2.6,23.7-8,35.5-14.9
		c11.8-6.8,23.4-15.5,35.1-24.8c11.7-9.3,23.2-18.8,34.6-28.5c45.5-38.8,88.3-80.7,128.1-125.3c0,0,43.2-48.4,43.2-48.4
		c-47.5,254.9-185.8,550.4-352.6,749.5c-56.3,67.2-123.9,129.1-207.3,156c-20.2,6.5-42.4,10.9-62.6,4.2
		c-33.9-11.2-51.5-51.1-47.7-86.6c3.8-35.4,24.3-66.8,46.4-94.8c86.2-109.3,204.1-188.8,324.3-259.1
		c283.4-165.8,590.9-290.4,909.8-368.7c-310,88.1-607.4,220.8-879.9,392.9c-133.7,84.4-264.8,181.7-348.1,316.2
		c-12.4,20.1-21.9,50.4-2.4,63.8c11.8,8.1,27.7,4.3,41.1-0.5c121.4-43.4,211.1-147.1,280-256.1c109.6-173.4,180.2-368,249.9-560.9
		c11,5.3,22,10.7,33,16c-42.8,44.5-84.6,89.2-131.6,129.3c-11.7,10-23.5,19.8-35.6,29.3c-12,9.6-24.5,19.5-38.6,28.3
		c-14.1,8.7-30.6,15.8-48.7,18.2c-4.4,0.6-9.1,0.9-14,0.9c-4.8-0.1-9.4-0.6-14-1.4c-9.2-1.7-18-4.7-26.2-9.1
		c-8.2-4.4-15.9-10.2-22.2-17.6c-6.4-7.3-11.3-16.5-13.5-26.4c-2.3-10-1.6-19.9,0.4-28.6c2.1-8.8,5.1-16.7,8.9-23.9
		c14.3-29.6,36.9-54.2,63.8-71.2c26.6-17.4,57.1-27.8,88-30.6C5937.9-1496.9,5969.4-1491,5996.7-1478.1"/>
</g>
<text transform="matrix(1 0 0 1 -2.1004 1269.0754)" class="st3 st4">Web Publisher</text>
<text transform="matrix(1 0 0 1 26.3441 1301.0754)" class="st5 st3 st4">Web Publisher</text>
</svg>
